<?xml version="1.0" encoding="utf-8"?>
<!-- Generator: Adobe Illustrator 15.1.0, SVG Export Plug-In . SVG Version: 6.00 Build 0)  -->
<!DOCTYPE svg PUBLIC "-//W3C//DTD SVG 1.1//EN" "http://www.w3.org/Graphics/SVG/1.1/DTD/svg11.dtd">
<svg version="1.1" id="Layer_1" xmlns="http://www.w3.org/2000/svg" xmlns:xlink="http://www.w3.org/1999/xlink" x="0px" y="0px"
	 width="14px" height="14px" viewBox="0 0 14 14" enable-background="new 0 0 14 14" xml:space="preserve">
<g>
	<g>
		<path d="M11.521,0.013H2.478c-0.33,0-0.596,0.267-0.596,0.596V13.33c0,0.33,0.267,0.597,0.596,0.597h9.044
			c0.33,0,0.597-0.267,0.597-0.597V0.609C12.118,0.28,11.852,0.013,11.521,0.013z M5.298,12.063c0,0.329-0.267,0.596-0.597,0.596
			H3.633c-0.33,0-0.596-0.267-0.596-0.596v-0.721c0-0.33,0.267-0.597,0.596-0.597h1.068c0.33,0,0.597,0.267,0.597,0.597V12.063z
			 M5.298,9.305c0,0.33-0.267,0.597-0.597,0.597H3.633c-0.33,0-0.596-0.267-0.596-0.597v-0.72c0-0.329,0.267-0.597,0.596-0.597
			h1.068c0.33,0,0.597,0.268,0.597,0.597V9.305z M5.298,6.547c0,0.33-0.267,0.596-0.597,0.596H3.633
			c-0.33,0-0.596-0.267-0.596-0.596v-0.72c0-0.33,0.267-0.597,0.596-0.597h1.068c0.33,0,0.597,0.268,0.597,0.597V6.547z
			 M8.13,12.063c0,0.329-0.267,0.596-0.596,0.596H6.466c-0.33,0-0.596-0.267-0.596-0.596v-0.721c0-0.33,0.267-0.597,0.596-0.597
			h1.068c0.329,0,0.596,0.267,0.596,0.597V12.063z M8.13,9.305c0,0.33-0.267,0.597-0.596,0.597H6.466
			c-0.33,0-0.596-0.267-0.596-0.597v-0.72c0-0.329,0.267-0.597,0.596-0.597h1.068c0.329,0,0.596,0.268,0.596,0.597V9.305z
			 M8.13,6.547c0,0.33-0.267,0.596-0.596,0.596H6.466c-0.33,0-0.596-0.267-0.596-0.596v-0.72c0-0.33,0.267-0.597,0.596-0.597h1.068
			c0.329,0,0.596,0.268,0.596,0.597V6.547z M10.963,12.063c0,0.329-0.268,0.596-0.596,0.596H9.298c-0.329,0-0.596-0.267-0.596-0.596
			v-0.721c0-0.33,0.267-0.597,0.596-0.597h1.069c0.328,0,0.596,0.267,0.596,0.597V12.063z M10.963,9.305
			c0,0.33-0.268,0.597-0.596,0.597H9.298c-0.329,0-0.596-0.267-0.596-0.597v-0.72c0-0.329,0.267-0.597,0.596-0.597h1.069
			c0.328,0,0.596,0.268,0.596,0.597V9.305z M10.963,6.547c0,0.33-0.268,0.596-0.596,0.596H9.298c-0.329,0-0.596-0.267-0.596-0.596
			v-0.72c0-0.33,0.267-0.597,0.596-0.597h1.069c0.328,0,0.596,0.268,0.596,0.597V6.547z M10.963,3.342
			c0,0.33-0.268,0.596-0.596,0.596H3.633c-0.33,0-0.596-0.267-0.596-0.596v-1.49c0-0.33,0.267-0.597,0.596-0.597h6.734
			c0.328,0,0.596,0.267,0.596,0.597V3.342z"/>
	</g>
</g>
</svg>
