<?xml version="1.0" encoding="utf-8"?>
<!-- Generator: Adobe Illustrator 15.1.0, SVG Export Plug-In . SVG Version: 6.00 Build 0)  -->
<!DOCTYPE svg PUBLIC "-//W3C//DTD SVG 1.1//EN" "http://www.w3.org/Graphics/SVG/1.1/DTD/svg11.dtd">
<svg version="1.1" id="Layer_1" xmlns="http://www.w3.org/2000/svg" xmlns:xlink="http://www.w3.org/1999/xlink" x="0px" y="0px"
	 width="14px" height="14px" viewBox="0 0 14 14" enable-background="new 0 0 14 14" xml:space="preserve">
<g>
	<g id="artwork">
		<g>
			<polygon points="6.921,2.48 6.984,2.48 6.952,2.458 			"/>
			<path d="M6.921,2.48L1.902,5.894v6.154c0,0.572,0.462,1.033,1.032,1.033h8.087c0.57,0,1.031-0.463,1.031-1.033v-6.12L6.984,2.48
				H6.921L6.921,2.48z"/>
		</g>
		<path d="M13.506,4.325L7.35,0.138C7.235,0.062,7.107,0.042,6.977,0.045C6.849,0.042,6.719,0.062,6.606,0.138L0.45,4.325
			C0.148,4.53,0.086,4.962,0.312,5.292c0.225,0.33,0.647,0.429,0.95,0.225l5.715-3.89l5.718,3.89
			c0.301,0.203,0.725,0.104,0.949-0.225C13.87,4.962,13.809,4.53,13.506,4.325z"/>
		<g>
			<path d="M12.055,0.991c0-0.285-0.23-0.516-0.519-0.516h-1.248c-0.287,0-0.519,0.23-0.519,0.516v0.137l2.283,1.554V0.991H12.055z"
				/>
		</g>
		<g>
			<g>
				<path fill="#FFFFFF" d="M9.816,5.2H4.169c-0.207,0-0.372,0.167-0.372,0.373v7.942c0,0.204,0.165,0.373,0.372,0.373h5.647
					c0.205,0,0.371-0.169,0.371-0.373V5.573C10.188,5.367,10.021,5.2,9.816,5.2z M5.928,12.725c0,0.207-0.166,0.37-0.373,0.37H4.89
					c-0.207,0-0.373-0.163-0.373-0.37v-0.449c0-0.207,0.167-0.375,0.373-0.375h0.665c0.208,0,0.373,0.168,0.373,0.375V12.725z
					 M5.928,11.002c0,0.206-0.166,0.375-0.373,0.375H4.89c-0.207,0-0.373-0.17-0.373-0.375v-0.449c0-0.205,0.167-0.373,0.373-0.373
					h0.665c0.208,0,0.373,0.17,0.373,0.373V11.002z M5.928,9.279c0,0.207-0.166,0.373-0.373,0.373H4.89
					c-0.207,0-0.373-0.166-0.373-0.373V8.83c0-0.205,0.167-0.373,0.373-0.373h0.665c0.208,0,0.373,0.168,0.373,0.373V9.279z
					 M7.699,12.725c0,0.207-0.166,0.37-0.373,0.37H6.657c-0.205,0-0.37-0.163-0.37-0.37v-0.449c0-0.207,0.166-0.375,0.37-0.375
					h0.668c0.207,0,0.372,0.168,0.372,0.375v0.449H7.699z M7.699,11.002c0,0.206-0.166,0.375-0.373,0.375H6.657
					c-0.205,0-0.37-0.17-0.37-0.375v-0.449c0-0.205,0.166-0.373,0.37-0.373h0.668c0.207,0,0.372,0.17,0.372,0.373v0.449H7.699z
					 M7.699,9.279c0,0.207-0.166,0.373-0.373,0.373H6.657c-0.205,0-0.37-0.166-0.37-0.373V8.83c0-0.205,0.166-0.373,0.37-0.373
					h0.668c0.207,0,0.372,0.168,0.372,0.373v0.449H7.699z M9.468,12.725c0,0.207-0.169,0.37-0.372,0.37H8.427
					c-0.204,0-0.372-0.163-0.372-0.37v-0.449c0-0.207,0.168-0.375,0.372-0.375h0.669c0.206,0,0.373,0.168,0.373,0.375L9.468,12.725
					L9.468,12.725z M9.468,11.002c0,0.206-0.169,0.375-0.372,0.375H8.427c-0.204,0-0.372-0.17-0.372-0.375v-0.449
					c0-0.205,0.168-0.373,0.372-0.373h0.669c0.206,0,0.373,0.17,0.373,0.373L9.468,11.002L9.468,11.002z M9.468,9.279
					c0,0.207-0.169,0.373-0.372,0.373H8.427c-0.204,0-0.372-0.166-0.372-0.373V8.83c0-0.205,0.168-0.373,0.372-0.373h0.669
					c0.206,0,0.373,0.168,0.373,0.373L9.468,9.279L9.468,9.279z M9.468,7.279c0,0.207-0.169,0.374-0.372,0.374H4.89
					c-0.207,0-0.373-0.167-0.373-0.374v-0.93c0-0.205,0.167-0.374,0.373-0.374h4.206c0.203,0,0.372,0.169,0.372,0.374V7.279
					L9.468,7.279z"/>
			</g>
		</g>
	</g>
</g>
</svg>
